<svg width="362" height="410" viewBox="0 0 362 410" fill="none" xmlns="http://www.w3.org/2000/svg">
<path d="M284.083 6.56177C285.982 3.84619 289.723 3.18424 292.438 5.08325C295.154 6.9823 295.816 10.7232 293.917 13.4387L209.476 134.189C209.505 134.201 209.535 134.213 209.564 134.225C216.298 137.014 222.416 141.103 227.569 146.256C229.071 147.758 230.483 149.343 231.798 151H332C348.569 151 362 164.432 362 181V346C362 362.569 348.568 376 332 376H175.275L133.035 407.974C129.358 410.756 124.255 410.665 120.681 407.751C117.107 404.837 115.989 399.856 117.975 395.695L127.37 376H44C19.6996 376 0.000189693 356.301 0 332V181C0 164.432 13.4315 151 30 151H144.853C146.168 149.343 147.579 147.758 149.081 146.256C153.375 141.962 158.338 138.407 163.769 135.728L45.2051 14.1897C42.8914 11.8178 42.9388 8.01922 45.3105 5.70532C47.6826 3.39156 51.481 3.43886 53.7949 5.81079L176.243 131.331C180.2 130.449 184.252 130 188.325 130C191.323 130 194.309 130.243 197.255 130.723L284.083 6.56177ZM127 400L158.707 376H138.449L127 400ZM44 167C36.268 167 30 173.268 30 181V332C30.0002 339.732 36.2681 346 44 346H332C339.732 346 346 339.732 346 332V181C346 173.268 339.732 167 332 167H44Z" fill="url(#paint0_linear_293_1900)"/>
<path d="M332 167C339.732 167 346 173.268 346 181V332C346 339.732 339.732 346 332 346H198.34L127 400L152.762 346H44C36.268 346 30 339.732 30 332V181C30 173.268 36.268 167 44 167H332Z" fill="white"/>
<path d="M220 232C221.437 232 222.764 232.771 223.476 234.02C224.187 235.268 224.174 236.803 223.441 238.039L191.441 292.039C190.721 293.255 189.413 294 188 294C186.587 294 185.279 293.255 184.559 292.039L152.559 238.039C151.826 236.803 151.813 235.268 152.524 234.02C153.236 232.771 154.563 232 156 232H220ZM312 279C314.209 279 316 280.791 316 283C316 285.209 314.209 287 312 287H248.5C246.291 287 244.5 285.209 244.5 283C244.5 280.791 246.291 279 248.5 279H312ZM127.5 278.5C129.709 278.5 131.5 280.291 131.5 282.5C131.5 284.709 129.709 286.5 127.5 286.5H64C61.7909 286.5 60 284.709 60 282.5C60 280.291 61.7909 278.5 64 278.5H127.5ZM188 282.153L212.979 240H163.021L188 282.153ZM312 265C314.209 265 316 266.791 316 269C316 271.209 314.209 273 312 273H248.5C246.291 273 244.5 271.209 244.5 269C244.5 266.791 246.291 265 248.5 265H312ZM127.5 264.5C129.709 264.5 131.5 266.291 131.5 268.5C131.5 270.709 129.709 272.5 127.5 272.5H64C61.7909 272.5 60 270.709 60 268.5C60 266.291 61.7909 264.5 64 264.5H127.5ZM310.498 207.793C312.546 206.963 314.877 207.951 315.707 209.998C316.537 212.046 315.549 214.377 313.502 215.207L264.65 235L313.502 254.793C315.549 255.623 316.537 257.954 315.707 260.002C314.877 262.049 312.546 263.037 310.498 262.207L252.498 238.707C250.988 238.095 250 236.629 250 235C250 233.371 250.988 231.905 252.498 231.293L310.498 207.793ZM60.293 209.498C61.1225 207.451 63.4545 206.463 65.502 207.293L123.502 230.793C125.012 231.405 126 232.871 126 234.5C126 236.129 125.012 237.595 123.502 238.207L65.502 261.707C63.4545 262.537 61.1225 261.549 60.293 259.502C59.4634 257.454 60.4506 255.123 62.498 254.293L111.35 234.5L62.498 214.707C60.4506 213.877 59.4634 211.546 60.293 209.498Z" fill="url(#paint1_linear_293_1900)"/>
<defs>
<linearGradient id="paint0_linear_293_1900" x1="181" y1="170.499" x2="181" y2="341.999" gradientUnits="userSpaceOnUse">
<stop stop-color="#FF3599"/>
<stop offset="1" stop-color="#FF77AB"/>
</linearGradient>
<linearGradient id="paint1_linear_293_1900" x1="188" y1="207.293" x2="188" y2="297.846" gradientUnits="userSpaceOnUse">
<stop stop-color="#FF3599"/>
<stop offset="1" stop-color="#FF77AB"/>
</linearGradient>
</defs>
</svg>
